{"title":"Hysteria.2011.SWESUB.DVDRiP.XViD.AC-3(5.1).avi-Zen_Bud","uid":7205675,"size":1466593153,"categoryP":"video","categoryS":"movies","magnet":"?xt=urn:btih:a2d8d4753ba3fc72b9a59111db44935fd3963a10&amp;dn=Hysteria.2011.SWESUB.DVDRiP.XViD.AC-3%285.1%29.avi-Zen_Bud&amp;tr=udp%3A%2F%2Ftracker.openbittorrent.com%3A80&amp;tr=udp%3A%2F%2Fopen.demonii.com%3A1337&amp;tr=udp%3A%2F%2Ftracker.coppersurfer.tk%3A6969&amp;tr=udp%3A%2F%2Fexodus.desync.com%3A6969","seeders":1,"leechers":0,"uploader":"Zen_Bud","files":-1,"time":1335082062,"description":"     Hysteria.2011.SWESUB.DVDRiP.XViD.AC-3(5.1).avi-Zen_Bud\n\nFormat                                   : AVI\nFile size                                : 1.37 GiB\nDuration                                 : 1h 35mn\nOverall bit rate                         : 2 056 Kbps\n\nVideo\nID                                       : 0\nFormat                                   : MPEG-4 Visual\nCodec ID                                 : XVID\nDuration                                 : 1h 35mn\nSource duration                          : 1h 35mn\nBit rate                                 : 1 661 Kbps\nWidth                                    : 720 pixels\nHeight                                   : 440 pixels\nDisplay aspect ratio                     : 2.35:1\nFrame rate                               : 25.000 fps\nColor space                              : YUV\nChroma subsampling                       : 4:2:0\nBit depth                                : 8 bits\nScan type                                : Progressive\nCompression mode                         : Lossy\nBits/(Pixel*Frame)                       : 0.210\nStream size                              : 1.10 GiB (81%)\nWriting library                          : XviD 1.1.2 (UTC 2006-11-01)\n\nAudio\nID                                       : 1\nFormat                                   : AC-3\nMode extension                           : CM (complete main)\nFormat settings, Endianness              : Big\nCodec ID                                 : 2000\nDuration                                 : 1h 35mn\nSource duration                          : 1h 35mn\nBit rate mode                            : Constant\nBit rate                                 : 384 Kbps\nChannel(s)                               : 6 channels\nChannel positions                        : Front: L C R, Side: L R, LFE\nSampling rate                            : 48.0 KHz\nBit depth                                : 16 bits\nCompression mode                         : Lossy\nStream size                              : 261 MiB (19%)\n\n\n","torrent":{"xt":"urn:btih:a2d8d4753ba3fc72b9a59111db44935fd3963a10","amp;dn":"Hysteria.2011.SWESUB.DVDRiP.XViD.AC-3%285.1%29.avi-Zen_Bud","amp;tr":["udp%3A%2F%2Ftracker.openbittorrent.com%3A80","udp%3A%2F%2Fopen.demonii.com%3A1337","udp%3A%2F%2Ftracker.coppersurfer.tk%3A6969","udp%3A%2F%2Fexodus.desync.com%3A6969"],"infoHash":"a2d8d4753ba3fc72b9a59111db44935fd3963a10","infoHashBuffer":{"type":"Buffer","data":[162,216,212,117,59,163,252,114,185,165,145,17,219,68,147,95,211,150,58,16]},"announce":[],"urlList":[]}}